X Lossless Decoder version 20110502 (132.0)

XLD extraction logfile from 2011-05-05 01:56:50 +0900

小林ゆう / HANAJI

Used drive : HL-DT-ST BD-RE  BH10NS30 (revision EL00)

Ripper mode             : CDParanoia III 10.2
Disable audio cache     : OK for the drive with a cache less than 2750KiB
Make use of C2 pointers : NO
Read offset correction  : 667
Max retry count         : 100
Gap status              : Analyzed, Appended

TOC of the extracted CD
     Track |   Start  |  Length  | Start sector | End sector 
    ---------------------------------------------------------
        1  | 00:00:00 | 03:42:27 |         0    |    16676   
        2  | 03:42:27 | 03:38:61 |     16677    |    33087   
        3  | 07:21:13 | 03:42:28 |     33088    |    49765   
        4  | 11:03:41 | 03:35:49 |     49766    |    65939   

AccurateRip Summary
    Track 01 : OK (confidence 5)
    Track 02 : OK (confidence 4)
    Track 03 : OK (confidence 2)
    Track 04 : OK (confidence 2)
        ->All tracks accurately ripped.

All Tracks
    Filename : /Users/angelicalbite/Music/flac/HANAJI.flac
    CRC32 hash             : 8D060C73
    CRC32 hash (skip zero) : AD2FE758
    Statistics
        Read error                           : 0
        Skipped (treated as error)           : 0
        Edge jitter error (maybe fixed)      : 0
        Atom jitter error (maybe fixed)      : 1
        Drift error (maybe fixed)            : 0
        Dropped bytes error (maybe fixed)    : 0
        Duplicated bytes error (maybe fixed) : 0

Track 01
    Pre-gap length : 00:02:00

    CRC32 hash             : 30EE8F08
    CRC32 hash (skip zero) : 28F09446
    AccurateRip signature  : D8A5572C
        ->Accurately ripped! (confidence 5)
    Statistics
        Read error                           : 0
        Skipped (treated as error)           : 0
        Edge jitter error (maybe fixed)      : 0
        Atom jitter error (maybe fixed)      : 1
        Drift error (maybe fixed)            : 0
        Dropped bytes error (maybe fixed)    : 0
        Duplicated bytes error (maybe fixed) : 0

Track 02
    Pre-gap length : 00:02:13

    CRC32 hash             : BE8524ED
    CRC32 hash (skip zero) : 41662EF7
    AccurateRip signature  : 32199DDC
        ->Accurately ripped! (confidence 4)
    Statistics
        Read error                           : 0
        Skipped (treated as error)           : 0
        Edge jitter error (maybe fixed)      : 0
        Atom jitter error (maybe fixed)      : 0
        Drift error (maybe fixed)            : 0
        Dropped bytes error (maybe fixed)    : 0
        Duplicated bytes error (maybe fixed) : 0

Track 03
    Pre-gap length : 00:03:13

    CRC32 hash             : ECB1279B
    CRC32 hash (skip zero) : 972C076B
    AccurateRip signature  : 7D99080A
        ->Accurately ripped! (confidence 2)
    Statistics
        Read error                           : 0
        Skipped (treated as error)           : 0
        Edge jitter error (maybe fixed)      : 0
        Atom jitter error (maybe fixed)      : 0
        Drift error (maybe fixed)            : 0
        Dropped bytes error (maybe fixed)    : 0
        Duplicated bytes error (maybe fixed) : 0

Track 04
    Pre-gap length : 00:02:13

    CRC32 hash             : D8B54F75
    CRC32 hash (skip zero) : D68DC2DC
    AccurateRip signature  : 1663E256
        ->Accurately ripped! (confidence 2)
    Statistics
        Read error                           : 0
        Skipped (treated as error)           : 0
        Edge jitter error (maybe fixed)      : 0
        Atom jitter error (maybe fixed)      : 0
        Drift error (maybe fixed)            : 0
        Dropped bytes error (maybe fixed)    : 0
        Duplicated bytes error (maybe fixed) : 0

No errors occurred

End of status report
